<svg width="135" height="21" viewBox="0 0 135 21" fill="none" xmlns="http://www.w3.org/2000/svg">
<g id="ServiceNow logo">
<g id="Group">
<path id="Vector" fill-rule="evenodd" clip-rule="evenodd" d="M32.2761 6.74475C30.8485 6.74475 29.6071 7.2413 28.5519 8.0482V6.86889H25.2002V19.9654H28.6761V11.5861C29.1726 10.9034 30.3519 9.97234 31.8416 9.97234C32.4002 9.97234 32.8347 10.0344 33.2692 10.1585V6.80682C32.9588 6.74475 32.5864 6.74475 32.2761 6.74475Z" fill="white"/>
<path id="Vector_2" fill-rule="evenodd" clip-rule="evenodd" d="M1.67586 15.9931C2.54483 16.8 3.91034 17.2965 5.27586 17.2965C6.2069 17.2965 6.95172 16.862 6.95172 16.1793C6.95172 14.1931 0.62069 14.9379 0.62069 10.6551C0.62069 8.11032 3.04138 6.55859 5.64828 6.55859C7.32414 6.55859 9.18621 7.17928 10.0552 7.86204L8.44138 10.4069C7.75862 9.91032 6.88966 9.5379 5.95862 9.5379C4.96552 9.5379 4.15862 9.91032 4.15862 10.5931C4.15862 12.2689 10.4897 11.6482 10.4897 16.1793C10.4897 18.7241 8.0069 20.2138 5.27586 20.2138C3.47586 20.2138 1.55172 19.5931 0 18.4758L1.67586 15.9931Z" fill="white"/>
<path id="Vector_3" fill-rule="evenodd" clip-rule="evenodd" d="M23.7108 13.3242C23.7108 9.66211 21.166 6.62073 17.566 6.62073C13.6556 6.62073 11.1729 9.78624 11.1729 13.4483C11.1729 17.5449 14.0901 20.2759 18.0004 20.2759C20.0487 20.2759 22.097 19.4069 23.3384 17.9173L21.3522 15.9311C20.7315 16.6138 19.5522 17.4207 18.0625 17.4207C16.2004 17.4207 14.7108 16.1793 14.5246 14.3173H23.5866C23.6487 14.0069 23.7108 13.6966 23.7108 13.3242ZM14.7108 11.7725C14.897 10.5931 16.0763 9.4759 17.5039 9.4759C18.9315 9.4759 19.9866 10.5931 20.1108 11.7725H14.7108Z" fill="white"/>
<path id="Vector_4" fill-rule="evenodd" clip-rule="evenodd" d="M41.6478 14.8758L45.1857 6.8689H48.8478L42.8271 20.0275H40.4064L34.3857 6.8689H38.0478L41.6478 14.8758Z" fill="white"/>
<g id="Group_2">
<path id="Vector_5" fill-rule="evenodd" clip-rule="evenodd" d="M51.8278 0.724121C53.0692 0.724121 54.1244 1.71722 54.1244 2.9586C54.1244 4.19998 53.0692 5.19309 51.8278 5.19309C50.5864 5.19309 49.5312 4.19998 49.5312 2.9586C49.5312 1.71722 50.5244 0.724121 51.8278 0.724121Z" fill="white"/>
<path id="Vector_6" d="M53.5032 6.8689H50.0273V19.9654H53.5032V6.8689Z" fill="white"/>
</g>
<path id="Vector_7" fill-rule="evenodd" clip-rule="evenodd" d="M68.0271 17.2966C66.4754 19.3449 64.5512 20.2759 62.0685 20.2759C58.034 20.2759 55.0547 17.2345 55.0547 13.4483C55.0547 9.66211 58.0961 6.62073 62.0685 6.62073C64.303 6.62073 66.3512 7.6759 67.5926 9.22762L65.1099 11.4C64.4271 10.469 63.3719 9.84831 62.0685 9.84831C60.0202 9.84831 58.5305 11.4621 58.5305 13.4483C58.5305 15.4966 60.0202 17.0483 62.1306 17.0483C63.5581 17.0483 64.6754 16.1793 65.234 15.3104L68.0271 17.2966Z" fill="white"/>
<path id="Vector_8" fill-rule="evenodd" clip-rule="evenodd" d="M80.7514 17.9173C79.5101 19.4069 77.3997 20.2759 75.4135 20.2759C71.5032 20.2759 68.5859 17.5449 68.5859 13.4483C68.5859 9.78624 71.0687 6.62073 74.979 6.62073C78.579 6.62073 81.1239 9.66211 81.1239 13.3242C81.1239 13.6966 81.1239 14.0069 81.0618 14.3173H71.9997C72.1859 16.1793 73.6756 17.4207 75.5377 17.4207C77.0273 17.4207 78.2066 16.5518 78.8273 15.9311L80.7514 17.9173ZM77.5239 11.7725C77.3997 10.5931 76.3446 9.4759 74.917 9.4759C73.4894 9.4759 72.248 10.5931 72.1239 11.7725H77.5239Z" fill="white"/>
<path id="Vector_9" fill-rule="evenodd" clip-rule="evenodd" d="M82.4893 20.0276V6.869H85.841V7.92417C86.8341 7.11728 88.0755 6.62073 89.5651 6.62073C91.3651 6.62073 93.041 7.42763 94.0962 8.73107C94.9651 9.78625 95.4617 11.0897 95.4617 13.3242V20.0276H91.9858V13.0759C91.9858 11.7725 91.6755 11.0897 91.1789 10.5931C90.7444 10.1587 89.9996 9.84831 89.1927 9.84831C87.7031 9.84831 86.5237 10.7793 86.0272 11.4621V19.9656H82.4893V20.0276Z" fill="white"/>
<path id="Vector_10" fill-rule="evenodd" clip-rule="evenodd" d="M104.462 6.62073C100.304 6.62073 96.8277 10.0345 96.7656 14.2552C96.7656 16.4897 97.6967 18.4759 99.1863 19.9035C99.7449 20.4 100.552 20.4621 101.173 20.0276C102.041 19.3449 103.159 18.9725 104.462 18.9725C105.766 18.9725 106.883 19.4069 107.752 20.0276C108.373 20.4621 109.179 20.4621 109.738 19.9035C111.228 18.4759 112.097 16.5518 112.097 14.3173C112.035 10.0345 108.683 6.62073 104.462 6.62073ZM104.4 18.1035C102.104 18.1035 100.552 16.3656 100.552 14.2552C100.552 12.1449 102.104 10.4069 104.4 10.4069C106.697 10.4069 108.248 12.1449 108.248 14.2552C108.248 16.4276 106.697 18.1035 104.4 18.1035Z" fill="white"/>
<g id="Group_3">
<path id="Vector_11" fill-rule="evenodd" clip-rule="evenodd" d="M118.986 20.0275H116.379L111.165 6.8689H114.703L117.558 14.3792L120.351 6.8689H123.268L126.062 14.3792L128.917 6.8689H132.393L127.179 20.0275H124.572L121.779 12.5172L118.986 20.0275Z" fill="white"/>
</g>
</g>
<g id="Group_4">
<g id="Group_5">
<path id="Vector_12" d="M132.455 18.5379H132.145V19.0965H131.896V17.5448H132.517C132.765 17.5448 133.014 17.7931 133.014 18.0414C133.014 18.2276 132.89 18.4138 132.703 18.4758L133.076 19.0965H132.828L132.455 18.5379ZM132.145 18.2896H132.517C132.641 18.2896 132.765 18.1655 132.765 18.0414C132.765 17.9172 132.641 17.7931 132.517 17.7931H132.145V18.2896Z" fill="white"/>
</g>
<path id="Vector_13" d="M132.393 16.9241C133.2 16.9241 133.821 17.5448 133.821 18.3517C133.821 19.1586 133.2 19.7793 132.393 19.7793C131.586 19.7793 130.966 19.1586 130.966 18.3517C130.966 17.5448 131.648 16.9241 132.393 16.9241ZM132.393 16.7379C131.462 16.7379 130.779 17.4827 130.779 18.3517C130.779 19.2827 131.524 19.9655 132.393 19.9655C133.324 19.9655 134.007 19.2207 134.007 18.3517C134.069 17.4207 133.324 16.7379 132.393 16.7379Z" fill="white"/>
</g>
</g>
</svg>
